<?xml version="1.0" encoding="utf-8"?>
<!-- Generator: Adobe Illustrator 23.0.1, SVG Export Plug-In . SVG Version: 6.00 Build 0)  -->
<svg version="1.1" id="Layer_1" xmlns="http://www.w3.org/2000/svg" xmlns:xlink="http://www.w3.org/1999/xlink" x="0px" y="0px"
	 viewBox="0 0 24 24" style="enable-background:new 0 0 24 24;" xml:space="preserve">
<style type="text/css">
	.st0{fill:none;}
	.st1{fill:#FFFFFF;}
</style>
<path class="st0" d="M0,0v24h24V0H0z M1,13V7c0-1.7,1.3-3,3-3h12c1.7,0,3,1.3,3,3v7c0,1.1-0.9,2-2,2H4C2.3,16,1,14.7,1,13z M23,18
	c0,1.1-0.9,2-2,2H5c-0.6,0-1-0.5-1-1s0.4-1,1-1h16V8c0-0.6,0.5-1,1-1s1,0.4,1,1V18z"/>
<path class="st1" d="M17.2,6.8c1.5,0,2.6,1.2,2.6,2.6v5.2c0,1.5-1.1,2.6-2.6,2.6H6.8c-1.4,0-2.6-1.1-2.6-2.6v-6
	c0-0.9,0.8-1.7,1.7-1.7C5.8,6.9,17.2,6.9,17.2,6.8z M14,12.1c0-1.2-0.9-2.1-2.1-2.1s-2.1,0.9-2.1,2.1s0.9,2.1,2.1,2.1
	S14,13.2,14,12.1z"/>
</svg>
