<?xml version="1.0" encoding="utf-8"?>
<!-- Generator: Adobe Illustrator 23.0.1, SVG Export Plug-In . SVG Version: 6.00 Build 0)  -->
<svg version="1.1" id="Layer_1" xmlns="http://www.w3.org/2000/svg" xmlns:xlink="http://www.w3.org/1999/xlink" x="0px" y="0px"
	 viewBox="0 0 24 24" style="enable-background:new 0 0 24 24;" xml:space="preserve">
<style type="text/css">
	.st0{fill:none;}
	.st1{fill:#FFFFFF;}
</style>
<path class="st0" d="M0,0h24v24H0V0z"/>
<path class="st1" d="M17.6,7.1H6.4C5.6,7.1,5,7.6,5,8.3v7.4c0,0.7,0.6,1.2,1.4,1.2h11.3c0.8,0,1.4-0.6,1.4-1.2V8.3
	C19,7.6,18.4,7.1,17.6,7.1z M17.4,9.7l-5,2.7c-0.2,0.1-0.5,0.1-0.8,0L6.6,9.7C6.5,9.6,6.4,9.4,6.4,9.2c0-0.4,0.5-0.7,0.9-0.4
	l4.7,2.6l4.7-2.6c0.4-0.2,0.9,0.1,0.9,0.4C17.6,9.4,17.6,9.6,17.4,9.7z"/>
</svg>
