<?xml version="1.0" encoding="utf-8"?>
<!-- Generator: Adobe Illustrator 23.0.1, SVG Export Plug-In . SVG Version: 6.00 Build 0)  -->
<svg version="1.1" id="Layer_1" xmlns="http://www.w3.org/2000/svg" xmlns:xlink="http://www.w3.org/1999/xlink" x="0px" y="0px"
	 viewBox="0 0 24 24" style="enable-background:new 0 0 24 24;" xml:space="preserve">
<style type="text/css">
	.st0{fill:none;}
	.st1{fill:#FFFFFF;}
</style>
<path class="st0" d="M0,0h24v24H0V0z"/>
<path class="st1" d="M12,12c1.8,0,3.3-1.5,3.3-3.3S13.8,5.3,12,5.3S8.7,6.8,8.7,8.7S10.2,12,12,12z M12,7c0.9,0,1.7,0.7,1.7,1.7
	s-0.7,1.7-1.7,1.7s-1.7-0.7-1.7-1.7S11.1,7,12,7z M12,12.8c-2.2,0-6.7,1.1-6.7,3.3v1.7c0,0.4,0.3,0.8,0.8,0.8h11.6
	c0.4,0,0.8-0.4,0.8-0.8v-1.7C18.7,13.9,14.2,12.8,12,12.8z M17,17H7v-0.8c0.2-0.6,2.7-1.7,5-1.7s4.8,1.1,5,1.7V17z"/>
</svg>
